<?xml version="1.0" encoding="utf-8"?>
<!-- Generator: Adobe Adobe Illustrator 24.2.0, SVG Export Plug-In . SVG Version: 6.00 Build 0)  -->
<svg version="1.1" id="Layer_1" xmlns="http://www.w3.org/2000/svg" xmlns:xlink="http://www.w3.org/1999/xlink" x="0px" y="0px"
	 width="792px" height="612px" viewBox="0 0 792 612" style="enable-background:new 0 0 792 612;" xml:space="preserve">
<style type="text/css">
	.st0{stroke:#000000;stroke-width:5;stroke-miterlimit:10;}
	.st1{fill:#B27F36;stroke:#B58030;stroke-miterlimit:10;}
	.st2{fill:#B58030;}
	.st3{fill:#290310;}
	.st4{fill:#FFFFFF;}
	.st5{fill:#FFFFFF;stroke:#FFFFFF;stroke-miterlimit:10;}
	.st6{fill:none;stroke:#290310;stroke-width:3;stroke-miterlimit:10;}
	.st7{fill:none;stroke:#000000;stroke-miterlimit:10;}
</style>
<g>
	<g>
		<polygon class="st1" points="163.42,261.75 134.66,294.2 131.02,294.04 131.18,290.65 163.69,252.43 198.36,292.06 197.86,295.92 
			194.17,295.87 		"/>
		<polygon class="st2" points="166.37,403.15 166.49,362.87 202.94,300.33 218.16,319.38 229.8,306.08 268.41,347.01 260.51,356.82 
			252.71,366.52 241.57,376.04 229.57,384.46 218.52,390.8 206.48,395.62 196.61,398.82 184.32,401.4 		"/>
		<path d="M156.26,347.33l-27.73-48.94c-0.01,0.02-0.02,0.04-0.04,0.06c0,0,0,0,0,0c0,0,0,0,0,0c-0.01,0.01-0.03,0.02-0.04,0.03
			c0,0,0,0.01,0,0.01c0,0,0,0.01-0.01,0.01c0,0,0,0,0,0c0,0,0,0,0,0c-0.01,0.02-0.03,0.04-0.05,0.06l-0.01,0.01
			c0,0-0.01,0.01-0.01,0.01c0,0,0,0-0.01,0c0,0.01-0.01,0.01-0.01,0.02c0,0,0,0.01-0.01,0.01c-0.02,0.02-0.03,0.04-0.04,0.05
			c-0.01,0.01-0.02,0.03-0.03,0.04c0,0-0.01,0-0.01,0.01c0,0.01-0.01,0.01-0.01,0.02c0,0-0.01,0-0.01,0.01c0,0,0,0.01-0.01,0.01
			c0,0,0,0,0-0.01c0,0-0.01,0-0.01,0.01c-0.01,0.01-0.01,0.02-0.02,0.02c0,0-0.01,0.01-0.01,0.01c0,0,0,0,0,0
			c-0.01,0.01-0.01,0.01-0.02,0.02c0,0,0,0-0.01,0c-0.01,0.02-0.02,0.04-0.04,0.06c0,0,0,0,0,0c-0.01,0.01-0.01,0.01-0.01,0.02
			c-0.01,0.01-0.03,0.02-0.05,0.03c-0.01,0.01-0.02,0.02-0.03,0.03c0,0-0.01,0-0.01,0.01l-0.11,0.64l-13.68,14.77l-12.59-9.39
			L62.2,346.6l0.87,1.75l2.18,3.2l2.33,2.77l2.18,3.86l2.77,2.77l2.18,1.75l1.97,2.4l2.55,2.77l2.55,2.26l2.84,2.69l2.98,2.4
			l2.62,1.82l2.4,2.26l2.98,1.82l2.77,2.04l3.57,2.11l3.42,1.82l3.49,1.89l4,1.93l3.93,2.11l4.8,1.82l5.82,1.75l5.97,2.04l7.42,1.82
			l9.68,1.97l15.78,0.47l0.07-39.52L156.26,347.33z"/>
		<polyline class="st3" points="274.62,335.67 274.97,336.08 278.1,330.25 279.62,326.95 281.07,323.31 282,320.61 283.03,318.08 
			283.91,315.17 284.61,312.24 285.08,310.39 282.88,310.5 		"/>
		<polyline class="st3" points="164.43,238.62 217.83,297.76 228.42,288.49 274.58,335.8 277.67,330.33 279.78,325.38 
			281.55,320.71 283.4,315.14 285.52,307.73 287.55,298.2 288.93,287.7 289.21,282.14 289.13,274.63 288.21,264.45 287.21,257.85 
			285.96,251.91 284.86,247.72 283.97,244.02 282.75,239.8 281.47,236.42 280.19,232.89 278.28,228.92 276.91,225.98 275.4,222.73 
			272.84,218.1 270.96,215.32 267.98,210.02 263.07,203.51 255.69,194.49 250.6,189.68 244.15,183.89 238.93,179.92 233.99,176.39 
			230.21,174.01 223.39,170.06 210.42,164.02 196.98,159.59 183.81,156.99 175.24,156.07 166.92,155.7 159.16,155.79 152.28,156.33 
			141.24,158 132.82,159.92 126.17,161.9 118.79,164.76 111.62,167.83 106.06,170.61 100.88,173.58 95.72,177.02 89.61,181.18 
			78.64,190.57 72.62,197.04 67.04,203.62 56.96,218.79 51.7,229.36 46.5,244.09 43.47,255.28 42.68,260.35 41.11,272.49 
			41.08,278.36 41.11,282.01 41.97,294.12 42.82,300.26 45.5,312.39 47.51,318.5 50.03,325.76 53.68,333.13 55.08,336.13 
			100.66,286.7 110.93,298.65 		"/>
		<g>
			<polyline class="st4" points="145.18,229.9 150.58,227.35 140.31,201.66 132.66,204.45 			"/>
			<polygon class="st5" points="80.72,268.38 80.72,264.62 113.21,264.76 113.25,268.51 			"/>
			<polyline class="st5" points="118.88,251.28 120.76,247.52 98.27,233.39 95.14,237.88 			"/>
			<polyline class="st5" points="130.65,239.59 134.96,235.93 113.83,211.28 108.66,215.05 			"/>
			<polyline class="st4" points="161.38,225.93 166.71,226.15 166.69,192.4 160.78,192.65 			"/>
			<polyline class="st4" points="176.69,226.4 181.42,229.44 193.72,201.34 188.51,199.29 			"/>
			<polyline class="st4" points="190.4,234.95 195.68,239.58 217.52,216.85 211.88,211.63 			"/>
			<polygon class="st4" points="204.99,247.51 208.79,253.17 231.94,239.75 228.14,233.52 			"/>
			<path class="st4" d="M212.97,262.7l0.02,5.76l34.46-0.17l-0.01-5.67C247.43,262.62,213.83,262.77,212.97,262.7z"/>
		</g>
		<path d="M166.33,362.88c0,0-37.57-64.08-37.73-64.47c-0.01-0.03-0.1,0.04-0.24,0.17c0,0,0,0,0,0c0,0,0,0,0,0c0,0,0,0,0,0
			c0,0-0.01,0.01-0.01,0.01c0,0,0,0.01-0.01,0.01c-0.02,0.02-0.03,0.04-0.04,0.05c-0.01,0.01-0.02,0.03-0.03,0.04
			c0,0-0.01,0-0.01,0.01c0,0.01-0.01,0.01-0.01,0.02c0,0-0.01,0-0.01,0.01c0,0,0,0.01-0.01,0.01c0,0,0,0,0-0.01
			c0,0-0.01,0-0.01,0.01c-0.01,0.01-0.01,0.02-0.02,0.02c0,0-0.01,0.01-0.01,0.01c0,0,0,0,0,0c-0.01,0.01-0.01,0.01-0.02,0.02
			c0,0,0,0-0.01,0c-0.01,0.02-0.02,0.04-0.04,0.06c0,0,0,0,0,0c-0.01,0.01-0.01,0.01-0.01,0.02c-0.01,0.01-0.03,0.02-0.05,0.03
			c-0.01,0.01-0.02,0.02-0.03,0.03c-0.01,0.01-0.03,0.01-0.05,0.02c0,0-0.01,0-0.01,0.01c-0.01,0.01-0.03,0.02-0.04,0.02
			c-2.87,2.94-14.09,15.92-14.09,15.92l-51.47,31.67l-0.82,1.01l7.24,9.89l1.88,3.02l4.72,4.21l3.75,3.48l5.86,5.31l5.68,4.62
			c0,0,4.43,3.37,6.03,4.3c0.01,0.01-0.03-0.04-0.02-0.03c2.28,1.84,8.55,5.17,8.55,5.17l1.54,0.84l2.47,1.41l2.48,1.15l5.73,2.61
			l3.62,1.67l2.81,0.73l5.86,1.97l4.42,1.18l2.85,0.78l2.9,0.7l7.92,1.26l5.44,0.74l5.67,0.44l7.41,0.05v-0.41L166.33,362.88z"/>
		<ellipse class="st6" cx="165.91" cy="278.88" rx="123.5" ry="124"/>
	</g>
	<g>
		<g>
			<path class="st3" d="M305.71,266.33h-2.1l-0.48-11.61h2.31c0.61,2.36,1.29,4.17,2.04,5.43c0.75,1.25,1.68,2.11,2.79,2.58
				c1.11,0.47,2.45,0.7,4.03,0.7c1.22,0,2.33-0.16,3.33-0.48c1-0.32,1.81-0.86,2.42-1.61c0.61-0.75,0.91-1.75,0.91-3.01
				c0-1.54-0.4-2.81-1.21-3.82s-1.84-1.88-3.09-2.63c-1.25-0.75-2.6-1.47-4.03-2.15c-1.58-0.82-3.06-1.7-4.46-2.63
				c-1.4-0.93-2.52-2.07-3.36-3.41c-0.84-1.34-1.26-3.05-1.26-5.13c0-1.93,0.47-3.55,1.42-4.86c0.95-1.31,2.27-2.3,3.98-2.98
				c1.7-0.68,3.66-1.02,5.88-1.02c1.47,0,2.64,0.12,3.52,0.35c0.88,0.23,1.59,0.47,2.15,0.7c0.56,0.23,1.05,0.35,1.48,0.35
				c0.36,0,0.69-0.09,0.99-0.27c0.3-0.18,0.53-0.55,0.67-1.13h1.77l0.38,11.12h-2.2c-0.79-3.15-1.83-5.4-3.12-6.74
				c-1.29-1.34-3.06-2.01-5.32-2.01c-1.86,0-3.29,0.37-4.27,1.1s-1.48,1.87-1.48,3.41c0,1.33,0.38,2.43,1.13,3.3
				c0.75,0.88,1.75,1.66,2.98,2.34c1.24,0.68,2.55,1.38,3.95,2.1c1.25,0.65,2.48,1.31,3.68,1.99c1.2,0.68,2.28,1.48,3.25,2.39
				c0.97,0.91,1.75,1.98,2.34,3.2c0.59,1.22,0.89,2.65,0.89,4.3c0,2.19-0.54,4.02-1.61,5.51c-1.07,1.49-2.55,2.62-4.43,3.39
				c-1.88,0.77-4.06,1.16-6.53,1.16c-1.76,0-3.14-0.13-4.17-0.4c-1.02-0.27-1.81-0.54-2.36-0.81c-0.56-0.27-1.03-0.4-1.42-0.4
				c-0.39,0-0.73,0.15-0.99,0.46C305.84,265.38,305.71,265.8,305.71,266.33z"/>
			<path class="st3" d="M348.75,266.23c-3.83,0-7-0.78-9.51-2.34c-2.51-1.56-4.37-3.7-5.59-6.42c-1.22-2.72-1.83-5.82-1.83-9.3
				c0-4.01,0.76-7.4,2.28-10.16c1.52-2.76,3.64-4.84,6.34-6.26c2.7-1.42,5.83-2.12,9.38-2.12c1.9,0,3.4,0.15,4.51,0.46
				c1.11,0.3,1.99,0.61,2.63,0.91c0.65,0.3,1.22,0.46,1.72,0.46c0.54,0,0.91-0.2,1.13-0.59c0.22-0.39,0.43-0.81,0.65-1.24h2.04v12.9
				h-2.31c-0.68-3.44-1.9-6-3.65-7.68c-1.76-1.68-4.01-2.53-6.77-2.53c-3.48,0-6.11,1.28-7.9,3.84c-1.79,2.56-2.69,6.21-2.69,10.94
				c0,3.44,0.46,6.23,1.37,8.38c0.91,2.15,2.26,3.72,4.03,4.7s3.91,1.48,6.42,1.48c2.58,0,4.74-0.46,6.48-1.37
				c1.74-0.91,3.38-2.23,4.92-3.95l1.56,1.4c-1.11,1.58-2.33,3.01-3.65,4.3c-1.33,1.29-2.91,2.31-4.76,3.06
				C353.7,265.85,351.44,266.23,348.75,266.23z"/>
			<path class="st3" d="M397.22,265.58H380.3v-2.04c1.58,0,2.72-0.13,3.44-0.4c0.72-0.27,1.17-0.79,1.37-1.56
				c0.2-0.77,0.3-1.92,0.3-3.47v-20.26c0-1.43-0.1-2.54-0.3-3.33c-0.2-0.79-0.65-1.35-1.37-1.69c-0.72-0.34-1.86-0.51-3.44-0.51
				v-2.04h17.04v2.04c-1.61,0-2.79,0.17-3.52,0.51c-0.73,0.34-1.18,0.91-1.34,1.72c-0.16,0.81-0.24,1.91-0.24,3.3v20.26
				c0,1.5,0.1,2.65,0.3,3.44c0.2,0.79,0.65,1.32,1.34,1.58s1.82,0.4,3.36,0.4V265.58z"/>
			<path class="st3" d="M434.9,265.96h-4.57l-21.17-28.11h-1.77l-1.4-2.42c-0.64-0.89-1.23-1.56-1.75-1.99
				c-0.52-0.43-1.06-0.72-1.61-0.89c-0.56-0.16-1.23-0.24-2.02-0.24v-2.04h11.5l19.24,25.53h0.27v-16.55c0-1.5-0.09-2.77-0.27-3.79
				c-0.18-1.02-0.62-1.8-1.32-2.34c-0.7-0.54-1.87-0.81-3.52-0.81v-2.04h13.22v2.04c-1.47,0-2.55,0.27-3.25,0.81
				c-0.7,0.54-1.14,1.33-1.32,2.39c-0.18,1.06-0.27,2.34-0.27,3.84V265.96z M413.78,265.58h-13.17v-2.04c1.43,0,2.51-0.37,3.22-1.1
				c0.72-0.73,1.2-1.76,1.45-3.09c0.25-1.33,0.38-2.88,0.38-4.68v-20.64h3.22v23.11c0,1.79,0.12,3.14,0.38,4.06
				c0.25,0.91,0.73,1.53,1.45,1.85c0.71,0.32,1.74,0.48,3.06,0.48V265.58z"/>
			<path class="st3" d="M445.21,266.33h-2.1l-0.48-11.61h2.31c0.61,2.36,1.29,4.17,2.04,5.43c0.75,1.25,1.68,2.11,2.79,2.58
				c1.11,0.47,2.45,0.7,4.03,0.7c1.22,0,2.33-0.16,3.33-0.48c1-0.32,1.81-0.86,2.42-1.61c0.61-0.75,0.91-1.75,0.91-3.01
				c0-1.54-0.4-2.81-1.21-3.82c-0.81-1-1.84-1.88-3.09-2.63c-1.25-0.75-2.6-1.47-4.03-2.15c-1.58-0.82-3.06-1.7-4.46-2.63
				s-2.52-2.07-3.36-3.41c-0.84-1.34-1.26-3.05-1.26-5.13c0-1.93,0.47-3.55,1.42-4.86c0.95-1.31,2.28-2.3,3.98-2.98
				c1.7-0.68,3.66-1.02,5.88-1.02c1.47,0,2.64,0.12,3.52,0.35c0.88,0.23,1.59,0.47,2.15,0.7c0.55,0.23,1.05,0.35,1.48,0.35
				c0.36,0,0.69-0.09,0.99-0.27c0.3-0.18,0.53-0.55,0.67-1.13h1.77l0.38,11.12h-2.2c-0.79-3.15-1.83-5.4-3.12-6.74
				c-1.29-1.34-3.06-2.01-5.32-2.01c-1.86,0-3.29,0.37-4.27,1.1c-0.99,0.73-1.48,1.87-1.48,3.41c0,1.33,0.38,2.43,1.13,3.3
				c0.75,0.88,1.75,1.66,2.98,2.34c1.24,0.68,2.55,1.38,3.95,2.1c1.25,0.65,2.48,1.31,3.68,1.99c1.2,0.68,2.28,1.48,3.25,2.39
				c0.97,0.91,1.75,1.98,2.34,3.2c0.59,1.22,0.89,2.65,0.89,4.3c0,2.19-0.54,4.02-1.61,5.51c-1.08,1.49-2.55,2.62-4.43,3.39
				c-1.88,0.77-4.06,1.16-6.53,1.16c-1.76,0-3.14-0.13-4.17-0.4c-1.02-0.27-1.81-0.54-2.37-0.81s-1.03-0.4-1.42-0.4
				c-0.39,0-0.73,0.15-0.99,0.46C445.35,265.38,445.21,265.8,445.21,266.33z"/>
			<path class="st3" d="M490.3,266.28c-5.27,0-9.08-1.09-11.45-3.28c-2.37-2.19-3.55-5.77-3.55-10.75v-15.21
				c0-1.25-0.13-2.22-0.4-2.9s-0.77-1.16-1.5-1.42c-0.73-0.27-1.82-0.4-3.25-0.4v-2.04h17.14v2.04c-1.47,0-2.57,0.13-3.3,0.4
				c-0.74,0.27-1.22,0.76-1.45,1.48c-0.23,0.72-0.35,1.76-0.35,3.12v14.29c0,2.33,0.28,4.28,0.83,5.86s1.52,2.76,2.9,3.55
				c1.38,0.79,3.29,1.18,5.72,1.18c3.44,0,5.93-0.79,7.47-2.36c1.54-1.58,2.31-4.21,2.31-7.9v-12.68c0-1.9-0.11-3.35-0.32-4.35
				c-0.21-1-0.68-1.68-1.4-2.04c-0.72-0.36-1.83-0.54-3.33-0.54v-2.04h13.65v2.04c-1.54,0-2.67,0.18-3.39,0.54
				c-0.72,0.36-1.17,1.02-1.37,1.99c-0.2,0.97-0.29,2.38-0.29,4.25v12.36c0,4.94-1.13,8.65-3.39,11.12
				C499.33,265.05,495.57,266.28,490.3,266.28z"/>
			<path class="st3" d="M530.01,265.58h-17.14v-2.04c1.36,0,2.39-0.11,3.09-0.32c0.7-0.21,1.17-0.68,1.42-1.4
				c0.25-0.72,0.38-1.83,0.38-3.33v-22.03c0-1.08-0.11-1.91-0.32-2.5c-0.21-0.59-0.67-1.01-1.37-1.26c-0.7-0.25-1.76-0.38-3.2-0.38
				v-2.04h15.91c2.58,0,4.93,0.27,7.07,0.81c2.13,0.54,3.82,1.46,5.08,2.77c1.25,1.31,1.88,3.11,1.88,5.4
				c0,1.97-0.42,3.57-1.26,4.81c-0.84,1.24-1.92,2.19-3.22,2.88c-1.31,0.68-2.71,1.2-4.22,1.56v0.27c0.57,0.36,1.21,0.95,1.91,1.77
				c0.7,0.82,1.62,2.05,2.77,3.68c1.15,1.63,2.69,3.83,4.62,6.58c0.86,1.18,1.71,1.93,2.55,2.26c0.84,0.32,1.87,0.48,3.09,0.48v2.04
				h-10.96c-1.29-2.18-2.36-3.99-3.22-5.43c-0.86-1.43-1.59-2.62-2.2-3.57c-0.61-0.95-1.16-1.81-1.64-2.58
				c-0.48-0.77-0.99-1.57-1.53-2.39c-0.5-0.82-0.99-1.33-1.45-1.53c-0.47-0.2-1.16-0.3-2.1-0.3h-1.24v8.76
				c0,1.43,0.12,2.52,0.38,3.25c0.25,0.74,0.75,1.21,1.5,1.42c0.75,0.21,1.9,0.32,3.44,0.32V265.58z M524.69,247.37l2.04,0.05
				c1.86-0.11,3.45-0.41,4.76-0.91c1.31-0.5,2.31-1.31,3.01-2.42c0.7-1.11,1.05-2.63,1.05-4.57c0-2.08-0.59-3.74-1.77-4.97
				c-1.18-1.24-3.1-1.85-5.75-1.85c-0.57,0-1.14,0.01-1.69,0.03c-0.56,0.02-1.1,0.06-1.64,0.13V247.37z"/>
			<path class="st3" d="M560.64,265.58h-11.93v-2.04c0.97,0,1.75-0.15,2.34-0.46c0.59-0.3,1.15-0.88,1.67-1.72
				c0.52-0.84,1.12-2.07,1.8-3.68l11.55-27.68h4.35l12.04,28.54c0.75,1.72,1.51,2.98,2.28,3.79c0.77,0.81,1.8,1.21,3.09,1.21v2.04
				h-16.17v-2.04c0.46,0,0.96-0.04,1.48-0.11c0.52-0.07,0.96-0.23,1.32-0.48c0.36-0.25,0.54-0.66,0.54-1.24
				c0-0.39-0.09-0.94-0.27-1.64c-0.18-0.7-0.43-1.42-0.75-2.18l-1.77-4.46l-0.43-1.29l-5.43-14.62h-0.21l-5.91,14.62l-0.38,1.29
				l-2.15,5.21c-0.14,0.47-0.3,0.96-0.46,1.48s-0.24,1.01-0.24,1.48c0,0.82,0.28,1.35,0.83,1.58c0.55,0.23,1.5,0.35,2.82,0.35
				V265.58z M573.11,254.08h-14.24l0.91-2.58h12.41L573.11,254.08z"/>
			<path class="st3" d="M623.95,265.96h-4.57l-21.17-28.11h-1.77l-1.4-2.42c-0.65-0.89-1.23-1.56-1.75-1.99
				c-0.52-0.43-1.06-0.72-1.61-0.89c-0.56-0.16-1.23-0.24-2.01-0.24v-2.04h11.5l19.24,25.53h0.27v-16.55c0-1.5-0.09-2.77-0.27-3.79
				c-0.18-1.02-0.62-1.8-1.32-2.34c-0.7-0.54-1.87-0.81-3.52-0.81v-2.04h13.22v2.04c-1.47,0-2.55,0.27-3.25,0.81
				c-0.7,0.54-1.14,1.33-1.32,2.39c-0.18,1.06-0.27,2.34-0.27,3.84V265.96z M602.83,265.58h-13.17v-2.04c1.43,0,2.51-0.37,3.22-1.1
				c0.72-0.73,1.2-1.76,1.45-3.09s0.38-2.88,0.38-4.68v-20.64h3.22v23.11c0,1.79,0.12,3.14,0.38,4.06c0.25,0.91,0.73,1.53,1.45,1.85
				c0.72,0.32,1.74,0.48,3.06,0.48V265.58z"/>
			<path class="st3" d="M649.37,266.23c-3.83,0-7-0.78-9.51-2.34c-2.51-1.56-4.37-3.7-5.59-6.42s-1.83-5.82-1.83-9.3
				c0-4.01,0.76-7.4,2.28-10.16c1.52-2.76,3.64-4.84,6.34-6.26c2.7-1.42,5.83-2.12,9.38-2.12c1.9,0,3.4,0.15,4.51,0.46
				c1.11,0.3,1.99,0.61,2.63,0.91c0.65,0.3,1.22,0.46,1.72,0.46c0.54,0,0.91-0.2,1.13-0.59c0.21-0.39,0.43-0.81,0.64-1.24h2.04v12.9
				h-2.31c-0.68-3.44-1.9-6-3.65-7.68c-1.76-1.68-4.01-2.53-6.77-2.53c-3.48,0-6.11,1.28-7.9,3.84c-1.79,2.56-2.69,6.21-2.69,10.94
				c0,3.44,0.46,6.23,1.37,8.38c0.91,2.15,2.26,3.72,4.03,4.7s3.91,1.48,6.42,1.48c2.58,0,4.74-0.46,6.48-1.37
				c1.74-0.91,3.38-2.23,4.92-3.95l1.56,1.4c-1.11,1.58-2.33,3.01-3.65,4.3c-1.33,1.29-2.91,2.31-4.76,3.06
				C654.32,265.85,652.05,266.23,649.37,266.23z"/>
			<path class="st3" d="M698.32,265.58h-30.04v-2.04c1.33,0,2.36-0.1,3.09-0.3c0.73-0.2,1.25-0.62,1.56-1.26
				c0.3-0.64,0.46-1.65,0.46-3.01v-21.71c0-1.36-0.12-2.39-0.35-3.09c-0.23-0.7-0.72-1.17-1.45-1.42c-0.73-0.25-1.84-0.38-3.3-0.38
				v-2.1h29.5l0.32,9.4h-2.36c-0.25-1.68-0.62-2.99-1.1-3.92s-1.25-1.58-2.31-1.93c-1.06-0.36-2.62-0.54-4.7-0.54h-7.42v12.84h5.37
				c1.72,0,3-0.11,3.84-0.32s1.4-0.67,1.67-1.37s0.4-1.75,0.4-3.14h2.2v12.41h-2.2c0-1.5-0.13-2.61-0.4-3.3
				c-0.27-0.7-0.82-1.15-1.67-1.34c-0.84-0.2-2.12-0.29-3.84-0.29h-5.37v13.86h6.56c1.9,0,3.44-0.1,4.62-0.29
				c1.18-0.2,2.13-0.56,2.85-1.1c0.72-0.54,1.31-1.29,1.77-2.26c0.47-0.97,0.93-2.22,1.4-3.76h2.26L698.32,265.58z"/>
			<path class="st3" d="M377.23,330.07H365.3v-2.04c0.97,0,1.75-0.15,2.34-0.46c0.59-0.3,1.15-0.88,1.67-1.72
				c0.52-0.84,1.12-2.07,1.8-3.68l11.55-27.68h4.35l12.04,28.54c0.75,1.72,1.51,2.98,2.28,3.79c0.77,0.81,1.8,1.21,3.09,1.21v2.04
				h-16.18v-2.04c0.47,0,0.96-0.04,1.48-0.11c0.52-0.07,0.96-0.23,1.32-0.48c0.36-0.25,0.54-0.66,0.54-1.24
				c0-0.39-0.09-0.94-0.27-1.64c-0.18-0.7-0.43-1.42-0.75-2.18l-1.77-4.46l-0.43-1.29l-5.43-14.62h-0.21l-5.91,14.62l-0.38,1.29
				l-2.15,5.21c-0.14,0.47-0.3,0.96-0.46,1.48c-0.16,0.52-0.24,1.01-0.24,1.48c0,0.82,0.28,1.35,0.83,1.58
				c0.56,0.23,1.5,0.35,2.82,0.35V330.07z M389.7,318.57h-14.24l0.91-2.58h12.41L389.7,318.57z"/>
			<path class="st3" d="M422.32,330.07h-15.58v-2.04c1.5,0,2.62-0.12,3.36-0.35c0.73-0.23,1.21-0.72,1.42-1.45
				c0.21-0.73,0.32-1.82,0.32-3.25v-21.6c0-1.33-0.16-2.3-0.48-2.93c-0.32-0.63-0.85-1.04-1.58-1.24c-0.73-0.2-1.75-0.3-3.04-0.3
				v-2.15h15.21c2.72,0,5.34,0.26,7.85,0.78c2.51,0.52,4.74,1.42,6.69,2.69c1.95,1.27,3.49,3.02,4.62,5.24
				c1.13,2.22,1.69,5.05,1.69,8.49c0,3.37-0.51,6.21-1.53,8.52c-1.02,2.31-2.46,4.17-4.33,5.59c-1.86,1.42-4.04,2.44-6.53,3.06
				C427.92,329.76,425.22,330.07,422.32,330.07z M421.41,327.38c2.9,0,5.39-0.41,7.47-1.24c2.08-0.82,3.67-2.3,4.78-4.43
				c1.11-2.13,1.67-5.2,1.67-9.22c0-4.84-1.17-8.54-3.49-11.12c-2.33-2.58-5.95-3.87-10.86-3.87c-0.36,0-0.71,0-1.05,0
				c-0.34,0-0.76,0.02-1.26,0.05v29.72c0.47,0.04,0.93,0.06,1.4,0.08C420.53,327.38,420.98,327.38,421.41,327.38z"/>
			<path class="st3" d="M466.12,330.34h-3.49l-12.68-28.7c-0.5-1.18-1-2.12-1.48-2.82c-0.48-0.7-1.04-1.21-1.67-1.53
				s-1.46-0.48-2.5-0.48v-2.04h16.61v2.04c-0.61,0-1.19,0.04-1.75,0.13c-0.56,0.09-1.01,0.28-1.37,0.56
				c-0.36,0.29-0.54,0.75-0.54,1.4c0,0.86,0.25,1.88,0.75,3.06l6.23,14.51l2.04,5.37h0.38l1.99-5.37l6.13-15.42
				c0.11-0.25,0.21-0.59,0.32-1.02c0.11-0.43,0.16-0.88,0.16-1.34c0-0.72-0.28-1.21-0.83-1.48c-0.56-0.27-1.42-0.4-2.61-0.4v-2.04
				h11.88v2.04c-0.79,0-1.45,0.09-1.99,0.27c-0.54,0.18-1.03,0.53-1.48,1.05c-0.45,0.52-0.92,1.3-1.42,2.34s-1.13,2.44-1.88,4.19
				L466.12,330.34z"/>
			<path class="st3" d="M501.69,330.07h-16.93v-2.04c1.58,0,2.72-0.13,3.44-0.4c0.72-0.27,1.17-0.79,1.37-1.56
				c0.2-0.77,0.3-1.92,0.3-3.47v-20.26c0-1.43-0.1-2.54-0.3-3.33c-0.2-0.79-0.65-1.35-1.37-1.69c-0.72-0.34-1.86-0.51-3.44-0.51
				v-2.04h17.04v2.04c-1.61,0-2.79,0.17-3.52,0.51c-0.73,0.34-1.18,0.91-1.34,1.72c-0.16,0.81-0.24,1.91-0.24,3.3v20.26
				c0,1.5,0.1,2.65,0.29,3.44c0.2,0.79,0.65,1.32,1.34,1.58s1.82,0.4,3.36,0.4V330.07z"/>
			<path class="st3" d="M508.03,330.82h-2.1l-0.48-11.61h2.31c0.61,2.36,1.29,4.17,2.04,5.43c0.75,1.25,1.68,2.11,2.79,2.58
				c1.11,0.47,2.45,0.7,4.03,0.7c1.22,0,2.33-0.16,3.33-0.48c1-0.32,1.81-0.86,2.42-1.61c0.61-0.75,0.91-1.75,0.91-3.01
				c0-1.54-0.4-2.81-1.21-3.82c-0.81-1-1.84-1.88-3.09-2.63c-1.25-0.75-2.6-1.47-4.03-2.15c-1.58-0.82-3.06-1.7-4.46-2.63
				s-2.52-2.07-3.36-3.41c-0.84-1.34-1.26-3.05-1.26-5.13c0-1.93,0.47-3.55,1.42-4.86c0.95-1.31,2.28-2.3,3.98-2.98
				c1.7-0.68,3.66-1.02,5.88-1.02c1.47,0,2.64,0.12,3.52,0.35c0.88,0.23,1.59,0.47,2.15,0.7c0.55,0.23,1.05,0.35,1.48,0.35
				c0.36,0,0.69-0.09,0.99-0.27c0.3-0.18,0.53-0.55,0.67-1.13h1.77l0.38,11.12h-2.2c-0.79-3.15-1.83-5.4-3.12-6.74
				c-1.29-1.34-3.06-2.01-5.32-2.01c-1.86,0-3.29,0.37-4.27,1.1c-0.99,0.73-1.48,1.87-1.48,3.41c0,1.33,0.38,2.43,1.13,3.3
				c0.75,0.88,1.75,1.66,2.98,2.34c1.24,0.68,2.55,1.38,3.95,2.1c1.25,0.65,2.48,1.31,3.68,1.99c1.2,0.68,2.28,1.48,3.25,2.39
				c0.97,0.91,1.75,1.98,2.34,3.2c0.59,1.22,0.89,2.65,0.89,4.3c0,2.19-0.54,4.02-1.61,5.51c-1.08,1.49-2.55,2.62-4.43,3.39
				c-1.88,0.77-4.06,1.16-6.53,1.16c-1.76,0-3.14-0.13-4.17-0.4c-1.02-0.27-1.81-0.54-2.37-0.81s-1.03-0.4-1.42-0.4
				c-0.39,0-0.73,0.15-0.99,0.46C508.17,329.86,508.03,330.29,508.03,330.82z"/>
			<path class="st3" d="M551.62,330.77c-3.69,0-6.83-0.72-9.43-2.15c-2.6-1.43-4.59-3.53-5.96-6.29c-1.38-2.76-2.07-6.07-2.07-9.94
				c0-3.73,0.69-6.95,2.07-9.67c1.38-2.72,3.39-4.84,6.02-6.34c2.63-1.5,5.76-2.26,9.38-2.26c3.69,0,6.83,0.72,9.43,2.15
				c2.6,1.43,4.58,3.49,5.96,6.15c1.38,2.67,2.07,5.83,2.07,9.49c0,3.87-0.69,7.21-2.07,10.02c-1.38,2.81-3.37,4.99-5.96,6.53
				C558.45,330,555.31,330.77,551.62,330.77z M551.67,328.19c3.4,0,5.93-1.32,7.58-3.95c1.65-2.63,2.47-6.69,2.47-12.17
				c0-3.3-0.42-6.09-1.26-8.38s-2.03-4.04-3.57-5.24c-1.54-1.2-3.35-1.8-5.43-1.8c-3.05,0-5.46,1.33-7.25,4
				c-1.79,2.67-2.69,6.48-2.69,11.42c0,5.05,0.84,9,2.53,11.85C545.72,326.77,548.27,328.19,551.67,328.19z"/>
			<path class="st3" d="M590.79,330.07h-17.14v-2.04c1.36,0,2.39-0.11,3.09-0.32c0.7-0.21,1.17-0.68,1.42-1.4
				c0.25-0.72,0.38-1.83,0.38-3.33v-22.03c0-1.08-0.11-1.91-0.32-2.5c-0.21-0.59-0.67-1.01-1.37-1.26c-0.7-0.25-1.76-0.38-3.2-0.38
				v-2.04h15.91c2.58,0,4.93,0.27,7.07,0.81c2.13,0.54,3.82,1.46,5.08,2.77c1.25,1.31,1.88,3.11,1.88,5.4
				c0,1.97-0.42,3.57-1.26,4.81c-0.84,1.24-1.92,2.19-3.22,2.88c-1.31,0.68-2.71,1.2-4.22,1.56v0.27c0.57,0.36,1.21,0.95,1.91,1.77
				c0.7,0.82,1.62,2.05,2.77,3.68c1.15,1.63,2.69,3.83,4.62,6.58c0.86,1.18,1.71,1.93,2.55,2.26c0.84,0.32,1.87,0.48,3.09,0.48v2.04
				h-10.96c-1.29-2.18-2.36-3.99-3.22-5.43c-0.86-1.43-1.59-2.62-2.2-3.57c-0.61-0.95-1.16-1.81-1.64-2.58
				c-0.48-0.77-0.99-1.57-1.53-2.39c-0.5-0.82-0.99-1.33-1.45-1.53c-0.47-0.2-1.16-0.3-2.1-0.3h-1.24v8.76
				c0,1.43,0.12,2.52,0.38,3.25c0.25,0.74,0.75,1.21,1.5,1.42c0.75,0.21,1.9,0.32,3.44,0.32V330.07z M585.47,311.85l2.04,0.05
				c1.86-0.11,3.45-0.41,4.76-0.91c1.31-0.5,2.31-1.31,3.01-2.42c0.7-1.11,1.05-2.63,1.05-4.57c0-2.08-0.59-3.74-1.77-4.97
				c-1.18-1.24-3.1-1.85-5.75-1.85c-0.57,0-1.14,0.01-1.69,0.03c-0.56,0.02-1.1,0.06-1.64,0.13V311.85z"/>
			<path class="st3" d="M613.74,330.82h-2.1l-0.48-11.61h2.31c0.61,2.36,1.29,4.17,2.04,5.43c0.75,1.25,1.68,2.11,2.79,2.58
				c1.11,0.47,2.45,0.7,4.03,0.7c1.22,0,2.33-0.16,3.33-0.48c1-0.32,1.81-0.86,2.42-1.61c0.61-0.75,0.91-1.75,0.91-3.01
				c0-1.54-0.4-2.81-1.21-3.82c-0.81-1-1.84-1.88-3.09-2.63c-1.25-0.75-2.6-1.47-4.03-2.15c-1.58-0.82-3.06-1.7-4.46-2.63
				s-2.52-2.07-3.36-3.41c-0.84-1.34-1.26-3.05-1.26-5.13c0-1.93,0.47-3.55,1.42-4.86c0.95-1.31,2.28-2.3,3.98-2.98
				c1.7-0.68,3.66-1.02,5.88-1.02c1.47,0,2.64,0.12,3.52,0.35c0.88,0.23,1.59,0.47,2.15,0.7c0.55,0.23,1.05,0.35,1.48,0.35
				c0.36,0,0.69-0.09,0.99-0.27c0.3-0.18,0.53-0.55,0.67-1.13h1.77l0.38,11.12h-2.2c-0.79-3.15-1.83-5.4-3.12-6.74
				c-1.29-1.34-3.06-2.01-5.32-2.01c-1.86,0-3.29,0.37-4.27,1.1c-0.99,0.73-1.48,1.87-1.48,3.41c0,1.33,0.38,2.43,1.13,3.3
				c0.75,0.88,1.75,1.66,2.98,2.34c1.24,0.68,2.55,1.38,3.95,2.1c1.25,0.65,2.48,1.31,3.68,1.99c1.2,0.68,2.28,1.48,3.25,2.39
				c0.97,0.91,1.75,1.98,2.34,3.2c0.59,1.22,0.89,2.65,0.89,4.3c0,2.19-0.54,4.02-1.61,5.51c-1.08,1.49-2.55,2.62-4.43,3.39
				c-1.88,0.77-4.06,1.16-6.53,1.16c-1.76,0-3.14-0.13-4.17-0.4c-1.02-0.27-1.81-0.54-2.37-0.81s-1.03-0.4-1.42-0.4
				c-0.39,0-0.73,0.15-0.99,0.46C613.87,329.86,613.74,330.29,613.74,330.82z"/>
		</g>
	</g>
	<rect x="319.34" y="306.42" class="st2" width="45" height="12"/>
	<rect x="642.84" y="306.92" class="st2" width="45" height="12"/>
</g>
</svg>
