<?xml version="1.0" encoding="utf-8"?>
<!-- Generator: Adobe Adobe Illustrator 24.2.0, SVG Export Plug-In . SVG Version: 6.00 Build 0)  -->
<svg version="1.1" id="Layer_1" xmlns="http://www.w3.org/2000/svg" xmlns:xlink="http://www.w3.org/1999/xlink" x="0px" y="0px"
	 width="1728px" height="1296px" viewBox="0 0 1728 1296" style="enable-background:new 0 0 1728 1296;" xml:space="preserve">
<style type="text/css">
	.st0{stroke:#000000;stroke-width:5;stroke-miterlimit:10;}
	.st1{fill:#B27F36;stroke:#B58030;stroke-miterlimit:10;}
	.st2{fill:#B58030;}
	.st3{fill:#290310;}
	.st4{fill:#FFFFFF;}
	.st5{fill:#FFFFFF;stroke:#FFFFFF;stroke-miterlimit:10;}
	.st6{fill:none;stroke:#290310;stroke-width:3;stroke-miterlimit:10;}
</style>
<g>
	<path class="st0" d="M200.61,257.92"/>
	<polygon class="st1" points="219.42,191.75 190.66,224.2 187.02,224.04 187.18,220.65 219.69,182.43 254.36,222.06 253.86,225.92 
		250.17,225.87 	"/>
	<polygon class="st2" points="222.37,333.15 222.49,292.87 258.94,230.33 274.16,249.38 285.8,236.08 324.41,277.01 316.51,286.82 
		308.71,296.52 297.57,306.04 285.57,314.46 274.52,320.8 262.48,325.62 252.61,328.82 240.32,331.4 	"/>
	<path d="M212.26,277.33l-27.73-48.94c-0.01,0.02-0.02,0.04-0.04,0.06c0,0,0,0,0,0c0,0,0,0,0,0c-0.01,0.01-0.03,0.02-0.04,0.03
		c0,0,0,0.01,0,0.01c0,0,0,0.01-0.01,0.01c0,0,0,0,0,0c0,0,0,0,0,0c-0.01,0.02-0.03,0.04-0.05,0.06l-0.01,0.01
		c0,0-0.01,0.01-0.01,0.01c0,0,0,0-0.01,0c0,0.01-0.01,0.01-0.01,0.02c0,0,0,0.01-0.01,0.01c-0.02,0.02-0.03,0.04-0.04,0.05
		c-0.01,0.01-0.02,0.03-0.03,0.04c0,0-0.01,0-0.01,0.01c0,0.01-0.01,0.01-0.01,0.02c0,0-0.01,0-0.01,0.01c0,0,0,0.01-0.01,0.01
		c0,0,0,0,0-0.01c0,0-0.01,0-0.01,0.01c-0.01,0.01-0.01,0.02-0.02,0.02c0,0-0.01,0.01-0.01,0.01c0,0,0,0,0,0
		c-0.01,0.01-0.01,0.01-0.02,0.02c0,0,0,0-0.01,0c-0.01,0.02-0.02,0.04-0.04,0.06c0,0,0,0,0,0c-0.01,0.01-0.01,0.01-0.01,0.02
		c-0.01,0.01-0.03,0.02-0.05,0.03c-0.01,0.01-0.02,0.02-0.03,0.03c0,0-0.01,0-0.01,0.01l-0.11,0.64l-13.68,14.77l-12.59-9.39
		L118.2,276.6l0.87,1.75l2.18,3.2l2.33,2.77l2.18,3.86l2.77,2.77l2.18,1.75l1.97,2.4l2.55,2.77l2.55,2.26l2.84,2.69l2.98,2.4
		l2.62,1.82l2.4,2.26l2.98,1.82l2.77,2.04l3.57,2.11l3.42,1.82l3.49,1.89l4,1.93l3.93,2.11l4.8,1.82l5.82,1.75l5.97,2.04l7.42,1.82
		l9.68,1.97l15.78,0.47l0.07-39.52L212.26,277.33z"/>
	<polyline class="st3" points="330.62,265.67 330.97,266.08 334.1,260.25 335.62,256.95 337.07,253.31 338,250.61 339.03,248.08 
		339.91,245.17 340.61,242.24 341.08,240.39 338.88,240.5 	"/>
	<polyline class="st3" points="220.43,168.62 273.83,227.76 284.42,218.49 330.58,265.8 333.67,260.33 335.78,255.38 337.55,250.71 
		339.4,245.14 341.52,237.73 343.55,228.2 344.93,217.7 345.21,212.14 345.13,204.63 344.21,194.45 343.21,187.85 341.96,181.91 
		340.86,177.72 339.97,174.02 338.75,169.8 337.47,166.42 336.19,162.89 334.28,158.92 332.91,155.98 331.4,152.73 328.84,148.1 
		326.96,145.32 323.98,140.02 319.07,133.51 311.69,124.49 306.6,119.68 300.15,113.89 294.93,109.92 289.99,106.39 286.21,104.01 
		279.39,100.06 266.42,94.02 252.98,89.59 239.81,86.99 231.24,86.07 222.92,85.7 215.16,85.79 208.28,86.33 197.24,88 
		188.82,89.92 182.17,91.9 174.79,94.76 167.62,97.83 162.06,100.61 156.88,103.58 151.72,107.02 145.61,111.18 134.64,120.57 
		128.62,127.04 123.04,133.62 112.96,148.79 107.7,159.36 102.5,174.09 99.47,185.28 98.68,190.35 97.11,202.49 97.08,208.36 
		97.11,212.01 97.97,224.12 98.82,230.26 101.5,242.39 103.51,248.5 106.03,255.76 109.68,263.13 111.08,266.13 156.66,216.7 
		166.93,228.65 	"/>
	<g>
		<polyline class="st4" points="201.18,159.9 206.58,157.35 196.31,131.66 188.66,134.45 		"/>
		<polygon class="st5" points="136.72,198.38 136.72,194.62 169.21,194.76 169.25,198.51 		"/>
		<polyline class="st5" points="174.88,181.28 176.76,177.52 154.27,163.39 151.14,167.88 		"/>
		<polyline class="st5" points="186.65,169.59 190.96,165.93 169.83,141.28 164.66,145.05 		"/>
		<polyline class="st4" points="217.38,155.93 222.71,156.15 222.69,122.4 216.78,122.65 		"/>
		<polyline class="st4" points="232.69,156.4 237.42,159.44 249.72,131.34 244.51,129.29 		"/>
		<polyline class="st4" points="246.4,164.95 251.68,169.58 273.52,146.85 267.88,141.63 		"/>
		<polygon class="st4" points="260.99,177.51 264.79,183.17 287.94,169.75 284.14,163.52 		"/>
		<path class="st4" d="M268.97,192.7l0.02,5.76l34.46-0.17l-0.01-5.67C303.43,192.62,269.83,192.77,268.97,192.7z"/>
	</g>
	<path d="M222.33,292.88c0,0-37.57-64.08-37.73-64.47c-0.01-0.03-0.1,0.04-0.24,0.17c0,0,0,0,0,0c0,0,0,0,0,0c0,0,0,0,0,0
		c0,0-0.01,0.01-0.01,0.01c0,0,0,0.01-0.01,0.01c-0.02,0.02-0.03,0.04-0.04,0.05c-0.01,0.01-0.02,0.03-0.03,0.04
		c0,0-0.01,0-0.01,0.01c0,0.01-0.01,0.01-0.01,0.02c0,0-0.01,0-0.01,0.01c0,0,0,0.01-0.01,0.01c0,0,0,0,0-0.01c0,0-0.01,0-0.01,0.01
		c-0.01,0.01-0.01,0.02-0.02,0.02c0,0-0.01,0.01-0.01,0.01c0,0,0,0,0,0c-0.01,0.01-0.01,0.01-0.02,0.02c0,0,0,0-0.01,0
		c-0.01,0.02-0.02,0.04-0.04,0.06c0,0,0,0,0,0c-0.01,0.01-0.01,0.01-0.01,0.02c-0.01,0.01-0.03,0.02-0.05,0.03
		c-0.01,0.01-0.02,0.02-0.03,0.03c-0.01,0.01-0.03,0.01-0.05,0.02c0,0-0.01,0-0.01,0.01c-0.01,0.01-0.03,0.02-0.04,0.02
		c-2.87,2.94-14.09,15.92-14.09,15.92l-51.47,31.67l-0.82,1.01l7.24,9.89l1.88,3.02l4.72,4.21l3.75,3.48l5.86,5.31l5.68,4.62
		c0,0,4.43,3.37,6.03,4.3c0.01,0.01-0.03-0.04-0.02-0.03c2.28,1.84,8.55,5.17,8.55,5.17l1.54,0.84l2.47,1.41l2.48,1.15l5.73,2.61
		l3.62,1.67l2.81,0.73l5.86,1.97l4.42,1.18l2.85,0.78l2.9,0.7l7.92,1.26l5.44,0.74l5.67,0.44l7.41,0.05v-0.41L222.33,292.88z"/>
	<ellipse class="st6" cx="221.91" cy="208.88" rx="123.5" ry="124"/>
</g>
</svg>
