<?xml version="1.0" encoding="utf-8"?>
<!-- Generator: Adobe Adobe Illustrator 24.2.0, SVG Export Plug-In . SVG Version: 6.00 Build 0)  -->
<svg version="1.1" id="Layer_1" xmlns="http://www.w3.org/2000/svg" xmlns:xlink="http://www.w3.org/1999/xlink" x="0px" y="0px"
	 width="792px" height="612px" viewBox="0 0 792 612" style="enable-background:new 0 0 792 612;" xml:space="preserve">
<style type="text/css">
	.st0{fill:#290310;}
	.st1{stroke:#000000;stroke-width:5;stroke-miterlimit:10;}
	.st2{fill:#B27F36;stroke:#B58030;stroke-miterlimit:10;}
	.st3{fill:#B58030;}
	.st4{fill:#FFFFFF;}
	.st5{fill:#FFFFFF;stroke:#FFFFFF;stroke-miterlimit:10;}
	.st6{fill:none;stroke:#290310;stroke-width:3;stroke-miterlimit:10;}
</style>
<g>
	<g>
		<g>
			<path class="st0" d="M19.5,108.73h-3.36l-0.78-18.74h3.71c0.98,3.82,2.07,6.74,3.28,8.76c1.21,2.03,2.7,3.41,4.48,4.17
				c1.78,0.75,3.94,1.13,6.47,1.13c1.95,0,3.74-0.26,5.35-0.78c1.61-0.52,2.9-1.39,3.88-2.6C43.51,99.45,44,97.83,44,95.8
				c0-2.49-0.65-4.54-1.94-6.16c-1.29-1.62-2.95-3.04-4.96-4.25c-2.01-1.21-4.17-2.37-6.47-3.47c-2.53-1.33-4.92-2.75-7.16-4.25
				c-2.24-1.5-4.04-3.34-5.39-5.51c-1.35-2.17-2.03-4.93-2.03-8.29c0-3.12,0.76-5.74,2.29-7.85c1.52-2.11,3.65-3.72,6.38-4.82
				c2.73-1.1,5.88-1.65,9.44-1.65c2.36,0,4.24,0.19,5.65,0.56c1.41,0.38,2.56,0.75,3.45,1.13c0.89,0.38,1.68,0.56,2.37,0.56
				c0.57,0,1.11-0.14,1.6-0.43c0.49-0.29,0.85-0.9,1.08-1.82h2.85l0.6,17.96h-3.54c-1.27-5.09-2.93-8.72-5-10.89
				c-2.07-2.17-4.92-3.25-8.54-3.25c-2.99,0-5.28,0.59-6.86,1.78c-1.58,1.19-2.37,3.02-2.37,5.51c0,2.14,0.6,3.92,1.81,5.34
				c1.21,1.42,2.8,2.68,4.79,3.77c1.98,1.1,4.1,2.23,6.34,3.38c2.01,1.04,3.98,2.11,5.91,3.21c1.93,1.1,3.67,2.39,5.22,3.86
				c1.55,1.47,2.8,3.2,3.75,5.16c0.95,1.97,1.42,4.28,1.42,6.94c0,3.53-0.86,6.49-2.59,8.89c-1.73,2.4-4.1,4.22-7.11,5.47
				c-3.02,1.24-6.51,1.87-10.48,1.87c-2.82,0-5.04-0.22-6.68-0.65c-1.64-0.43-2.9-0.87-3.79-1.3c-0.89-0.43-1.65-0.65-2.29-0.65
				c-0.63,0-1.16,0.25-1.6,0.74C19.72,107.18,19.5,107.86,19.5,108.73z"/>
			<path class="st0" d="M88.58,108.56c-6.15,0-11.24-1.26-15.26-3.77c-4.02-2.52-7.02-5.97-8.97-10.37
				c-1.96-4.4-2.93-9.4-2.93-15.01c0-6.48,1.22-11.94,3.67-16.4c2.44-4.45,5.83-7.82,10.18-10.11c4.34-2.28,9.36-3.43,15.05-3.43
				c3.05,0,5.46,0.25,7.24,0.74c1.78,0.49,3.19,0.98,4.23,1.48c1.03,0.49,1.95,0.74,2.76,0.74c0.86,0,1.47-0.32,1.81-0.95
				c0.34-0.64,0.69-1.3,1.04-2h3.28v20.82h-3.71c-1.09-5.55-3.05-9.69-5.86-12.41c-2.82-2.72-6.44-4.08-10.87-4.08
				c-5.58,0-9.8,2.07-12.68,6.2c-2.88,4.14-4.31,10.02-4.31,17.66c0,5.55,0.73,10.06,2.2,13.54c1.47,3.47,3.62,6,6.47,7.59
				c2.85,1.59,6.28,2.39,10.31,2.39c4.14,0,7.6-0.74,10.39-2.21c2.79-1.47,5.42-3.6,7.89-6.38l2.5,2.26
				c-1.78,2.55-3.74,4.86-5.86,6.94c-2.13,2.08-4.67,3.73-7.63,4.95S92.89,108.56,88.58,108.56z"/>
			<path class="st0" d="M267.69,107.51h-27.17v-3.3c2.53,0,4.37-0.22,5.52-0.65c1.15-0.43,1.88-1.27,2.2-2.52
				c0.32-1.24,0.47-3.11,0.47-5.6V62.74c0-2.31-0.16-4.11-0.47-5.38c-0.32-1.27-1.05-2.18-2.2-2.73c-1.15-0.55-2.99-0.82-5.52-0.82
				v-3.3h27.34v3.3c-2.59,0-4.47,0.28-5.65,0.82c-1.18,0.55-1.9,1.48-2.16,2.78c-0.26,1.3-0.39,3.08-0.39,5.34v32.71
				c0,2.43,0.16,4.28,0.47,5.55c0.32,1.27,1.04,2.13,2.16,2.56c1.12,0.43,2.92,0.65,5.39,0.65V107.51z"/>
			<path class="st0" d="M290.2,107.51h-19.14v-3.3c1.55,0,2.8-0.25,3.75-0.74c0.95-0.49,1.84-1.42,2.67-2.78
				c0.83-1.36,1.8-3.34,2.89-5.94l18.54-44.68h6.99l19.32,46.07c1.21,2.78,2.43,4.82,3.67,6.12c1.24,1.3,2.89,1.95,4.96,1.95v3.3
				h-25.96v-3.3c0.75,0,1.54-0.06,2.37-0.17c0.83-0.12,1.54-0.38,2.11-0.78c0.57-0.4,0.86-1.07,0.86-2c0-0.64-0.14-1.52-0.43-2.65
				c-0.29-1.13-0.69-2.3-1.21-3.51l-2.85-7.2l-0.69-2.08l-8.71-23.6h-0.35l-9.49,23.6l-0.6,2.08l-3.45,8.42
				c-0.23,0.75-0.47,1.55-0.73,2.39c-0.26,0.84-0.39,1.63-0.39,2.39c0,1.33,0.44,2.18,1.34,2.56c0.89,0.38,2.4,0.56,4.53,0.56
				V107.51z M310.2,88.95h-22.85l1.47-4.17h19.92L310.2,88.95z"/>
		</g>
	</g>
	<g>
		<path class="st1" d="M167.82,94.28"/>
		<polygon class="st2" points="175.86,65.83 163.57,79.79 162.01,79.72 162.08,78.26 175.97,61.82 190.79,78.86 190.58,80.52 
			189,80.5 		"/>
		<polygon class="st3" points="177.12,126.63 177.17,109.31 192.75,82.42 199.25,90.61 204.22,84.89 220.72,102.49 217.34,106.71 
			214.01,110.88 209.25,114.98 204.12,118.59 199.4,121.32 194.26,123.39 190.04,124.77 184.79,125.88 		"/>
		<path d="M172.8,102.63l-11.85-21.04c0,0.01-0.01,0.02-0.02,0.02c0,0,0,0,0,0c0,0,0,0,0,0c-0.01,0.01-0.01,0.01-0.02,0.01
			c0,0,0,0,0,0c0,0,0,0,0,0c0,0,0,0,0,0c0,0,0,0,0,0c-0.01,0.01-0.01,0.02-0.02,0.03l0,0c0,0,0,0,0,0.01c0,0,0,0,0,0
			c0,0,0,0-0.01,0.01c0,0,0,0,0,0c-0.01,0.01-0.01,0.02-0.02,0.02c0,0.01-0.01,0.01-0.01,0.02c0,0,0,0,0,0c0,0,0,0-0.01,0.01
			c0,0,0,0,0,0c0,0,0,0,0,0c0,0,0,0,0,0c0,0,0,0,0,0c0,0,0,0.01-0.01,0.01c0,0,0,0,0,0c0,0,0,0,0,0c0,0,0,0.01-0.01,0.01
			c0,0,0,0,0,0c-0.01,0.01-0.01,0.02-0.02,0.02c0,0,0,0,0,0c0,0,0,0.01-0.01,0.01c-0.01,0.01-0.01,0.01-0.02,0.01
			c-0.01,0-0.01,0.01-0.01,0.01c0,0,0,0,0,0l-0.05,0.27l-5.85,6.35l-5.38-4.04l-16.85,17.9l0.37,0.75l0.93,1.38l1,1.19l0.93,1.66
			l1.18,1.19l0.93,0.75l0.84,1.03l1.09,1.19l1.09,0.97l1.21,1.16l1.27,1.03l1.12,0.78l1.03,0.97l1.27,0.78l1.18,0.88l1.52,0.91
			l1.46,0.78l1.49,0.81l1.71,0.83l1.68,0.91l2.05,0.78l2.49,0.75l2.55,0.88l3.17,0.78l4.14,0.84l6.74,0.2l0.03-16.99L172.8,102.63z"
			/>
		<polyline class="st0" points="223.37,97.62 223.52,97.79 224.86,95.29 225.51,93.87 226.13,92.3 226.53,91.14 226.96,90.05 
			227.34,88.8 227.64,87.54 227.84,86.75 226.9,86.79 		"/>
		<polyline class="st0" points="176.29,55.89 199.1,81.31 203.63,77.33 223.35,97.67 224.67,95.32 225.58,93.19 226.33,91.18 
			227.12,88.79 228.03,85.6 228.9,81.5 229.49,76.99 229.61,74.6 229.57,71.37 229.18,66.99 228.75,64.16 228.21,61.6 227.75,59.8 
			227.37,58.21 226.84,56.39 226.3,54.94 225.75,53.42 224.93,51.71 224.35,50.45 223.71,49.05 222.61,47.06 221.81,45.87 
			220.53,43.59 218.44,40.79 215.28,36.91 213.11,34.84 210.35,32.35 208.12,30.65 206.01,29.13 204.4,28.11 201.48,26.41 
			195.94,23.81 190.2,21.9 184.57,20.79 180.91,20.39 177.35,20.23 174.04,20.27 171.1,20.5 166.38,21.22 162.78,22.04 159.94,22.9 
			156.79,24.13 153.72,25.45 151.35,26.64 149.14,27.92 146.93,29.4 144.32,31.19 139.63,35.22 137.06,38.01 134.68,40.84 
			130.37,47.36 128.13,51.91 125.9,58.24 124.61,63.05 124.27,65.23 123.6,70.45 123.59,72.97 123.6,74.54 123.97,79.75 
			124.33,82.39 125.47,87.61 126.33,90.23 127.41,93.36 128.97,96.52 129.57,97.82 149.04,76.56 153.43,81.7 		"/>
		<g>
			<polyline class="st4" points="168.06,52.14 170.37,51.04 165.99,39.99 162.71,41.19 			"/>
			<polygon class="st5" points="140.52,68.68 140.52,67.07 154.41,67.13 154.42,68.74 			"/>
			<polyline class="st5" points="156.83,61.33 157.63,59.71 148.02,53.64 146.69,55.57 			"/>
			<polyline class="st5" points="161.86,56.3 163.7,54.73 154.67,44.13 152.46,45.75 			"/>
			<polyline class="st4" points="174.99,50.43 177.26,50.53 177.25,36.01 174.73,36.12 			"/>
			<polyline class="st4" points="181.53,50.63 183.55,51.94 188.8,39.85 186.58,38.97 			"/>
			<polyline class="st4" points="187.38,54.31 189.64,56.3 198.97,46.52 196.56,44.28 			"/>
			<polygon class="st4" points="193.62,59.71 195.24,62.14 205.13,56.37 203.51,53.69 			"/>
			<path class="st4" d="M197.03,66.24l0.01,2.48l14.72-0.07l-0.01-2.44C211.75,66.21,197.4,66.27,197.03,66.24z"/>
		</g>
		<path d="M177.1,109.32c0,0-16.05-27.55-16.12-27.72c0-0.01-0.04,0.02-0.1,0.07c0,0,0,0,0,0c0,0,0,0,0,0c0,0,0,0,0,0
			c0,0,0,0,0,0.01c0,0,0,0,0,0c-0.01,0.01-0.01,0.02-0.02,0.02c0,0.01-0.01,0.01-0.01,0.02c0,0,0,0,0,0c0,0,0,0-0.01,0.01
			c0,0,0,0,0,0c0,0,0,0,0,0c0,0,0,0,0,0c0,0,0,0,0,0c0,0,0,0.01-0.01,0.01c0,0,0,0,0,0c0,0,0,0,0,0c0,0,0,0.01-0.01,0.01
			c0,0,0,0,0,0c-0.01,0.01-0.01,0.02-0.02,0.02c0,0,0,0,0,0c0,0,0,0.01-0.01,0.01c-0.01,0.01-0.01,0.01-0.02,0.01
			c-0.01,0-0.01,0.01-0.01,0.01c-0.01,0.01-0.01,0.01-0.02,0.01c0,0,0,0,0,0c-0.01,0-0.01,0.01-0.02,0.01
			c-1.23,1.26-6.02,6.85-6.02,6.85l-21.99,13.62l-0.35,0.43l3.09,4.25l0.8,1.3l2.02,1.81l1.6,1.5l2.5,2.28l2.43,1.99
			c0,0,1.89,1.45,2.58,1.85c0,0-0.01-0.02-0.01-0.01c0.97,0.79,3.65,2.22,3.65,2.22l0.66,0.36l1.05,0.6l1.06,0.49l2.45,1.12
			l1.55,0.72l1.2,0.31l2.5,0.85l1.89,0.51l1.22,0.34l1.24,0.3l3.38,0.54l2.33,0.32l2.42,0.19l3.16,0.02v-0.18L177.1,109.32z"/>
		<ellipse class="st6" cx="176.92" cy="73.2" rx="52.77" ry="53.32"/>
	</g>
</g>
</svg>
